<svg width="23" height="22" viewBox="0 0 23 22" fill="none" xmlns="http://www.w3.org/2000/svg">
<g clip-path="url(#clip0_273_16)">
<path fill-rule="evenodd" clip-rule="evenodd" d="M0.845195 2.01195C0.384935 1.55169 0.384935 0.805456 0.845195 0.345196C1.30546 -0.115065 2.05169 -0.115065 2.51195 0.345196L7.88515 5.7184L11.4119 2.19161C11.5497 2.04972 11.717 1.93979 11.9021 1.86961C12.0904 1.79817 12.2924 1.76973 12.4931 1.7864C12.5113 1.78791 12.5294 1.79005 12.5475 1.79281L18.1698 2.65667L20.3624 0.464128C20.8227 0.00386614 21.5689 0.00386614 22.0292 0.464128C22.4895 0.924388 22.4895 1.67062 22.0292 2.13087L19.8366 4.32342L20.7004 9.94581C20.7032 9.96385 20.7054 9.98197 20.7068 10.0001C20.7235 10.2009 20.6951 10.4029 20.6237 10.5912C20.5535 10.7762 20.4435 10.9435 20.3017 11.0814L16.7748 14.6081L22.1548 19.9881C22.615 20.4484 22.615 21.1945 22.1548 21.6548C21.6945 22.115 20.9484 22.115 20.4881 21.6548L0.845195 2.01195ZM13.6842 17.6988L4.79443 8.80912L1.18684 12.4167C0.439047 13.1654 0.438703 14.4445 1.1865 15.1932L7.2997 21.3064C7.66801 21.6741 8.1676 21.8812 8.68815 21.8812C9.20868 21.8812 9.70793 21.6746 10.0762 21.3068L13.6842 17.6988ZM15.4181 8.31828C14.6687 8.31828 14.0611 7.71073 14.0611 6.96129C14.0611 6.21186 14.6687 5.60431 15.4181 5.60431C16.1676 5.60431 16.7751 6.21186 16.7751 6.96129C16.7751 7.71073 16.1676 8.31828 15.4181 8.31828Z" fill="black"/>
</g>
<defs>
<clipPath id="clip0_273_16">
<rect width="22" height="22" fill="white" transform="translate(0.5)"/>
</clipPath>
</defs>
</svg>
